# xmcd CD database file generated by GCD 2.95
# 
# Track frame offsets:
#       150
#       13498
#       23917
#       25365
#       34888
#       37711
#       49524
#       52013
#       66919
#       68733
#       81337
#       85260
#       98730
#       100433
#       113168
#       115462
#       125047
#       127712
#       140463
#       142730
#       158755
#       162038
#       167189
#       177290
#       178970
#       187517
#       189417
#       205277
#       220306
#       229342
#       242706
#       265875
#       278505
#       289120
#       290879
#       302130
#       310233
#       317728
#       336540
#       342027
# 
# Disc length: 4739 seconds
# 
# Revision: 3
# Processed by: cddbd v1.5PL3 Copyright (c) Steve Scherf et al.
# Submitted via: GCD 2.95
# 
DISCID=51128128
DTITLE=Hank Williams III - 2004-02-28 Asheville Disc 1
DYEAR=1900
DGENRE=
TTITLE0=Introduction
TTITLE1=Straight To Hell
TTITLE2="applause"
TTITLE3=Thrown Out of The Bar
TTITLE4="back in the day..."
TTITLE5=Little Bit of Smoke And a Whole Lotta Wine
TTITLE6="did we get any SuperJoint Ritual fans"
TTITLE7=I Don't Know
TTITLE8="pay our respects to Wayne Hancock"
TTITLE9=87 Southbound
TTITLE10="hat's off to Scott"
TTITLE11=Trashville
TTITLE12="applause"
TTITLE13=Drinkin' Over Momma
TTITLE14="applause"
TTITLE15=Even Though I'm Broke
TTITLE16="for the old outlaws we lose everyday*
TTITLE17=Country Heroes
TTITLE18="this goes out to Uncle Tom"
TTITLE19=7 Months, 39 Days
TTITLE20="he ain't gonna stop until they put him dead in the ground"
TTITLE21=Long Haired Redneck
TTITLE22=If You Don't Like Hank Williams
TTITLE23="..to the original Hiram Hank.."
TTITLE24=My Bucket's Got A Hole In It
TTITLE25="when you're young, hard and mean.."
TTITLE26=Cocaine Blues
TTITLE27=Mississippi Mud
TTITLE28="band and crew introduction"
TTITLE29=Nighttime Ramblin' Man
TTITLE30=I'm The Only Hell (My Momma Ever Raised)
TTITLE31=If The Shoe Fits
TTITLE32=The Devil Is My Friend
TTITLE33="a couple more.."
TTITLE34=One Horse Town
TTITLE35="Evil, come here real quick"
TTITLE36=Up In Smoke
TTITLE37=Whiskey, Weed, and Women
TTITLE38="fuck Toby Keith"
TTITLE39=Dick In Dixie
EXTD=
EXTT0=
EXTT1=
EXTT2=
EXTT3=
EXTT4=
EXTT5=
EXTT6=
EXTT7=
EXTT8=
EXTT9=
EXTT10=
EXTT11=
EXTT12=
EXTT13=
EXTT14=
EXTT15=
EXTT16=
EXTT17=
EXTT18=
EXTT19=
EXTT20=
EXTT21=
EXTT22=
EXTT23=
EXTT24=
EXTT25=
EXTT26=
EXTT27=
EXTT28=
EXTT29=
EXTT30=
EXTT31=
EXTT32=
EXTT33=
EXTT34=
EXTT35=
EXTT36=
EXTT37=
EXTT38=
EXTT39=
PLAYORDER=
